<mxfile host="app.diagrams.net" modified="2023-03-28T07:53:27.098Z" agent="Mozilla/5.0 (X11; Linux x86_64) AppleWebKit/537.36 (KHTML, like Gecko) Chrome/110.0.0.0 Safari/537.36" etag="t_Ft3q7uZnqDFHZA8Zjt" version="21.1.0" type="github">
  <diagram name="Page-1" id="R2RLw2f-_EB18nDPJjpL">
    <mxGraphModel dx="1077" dy="606" grid="1" gridSize="10" guides="1" tooltips="1" connect="1" arrows="1" fold="1" page="1" pageScale="1" pageWidth="827" pageHeight="1169" math="0" shadow="0">
      <root>
        <mxCell id="0" />
        <mxCell id="1" parent="0" />
        <mxCell id="riVmELEoJKBYG4qQqgdV-2" value="User" style="text;html=1;align=center;verticalAlign=middle;resizable=0;points=[];autosize=1;strokeColor=none;fillColor=none;" vertex="1" parent="1">
          <mxGeometry x="360" y="20" width="50" height="30" as="geometry" />
        </mxCell>
        <mxCell id="riVmELEoJKBYG4qQqgdV-3" value="" style="sketch=0;aspect=fixed;pointerEvents=1;shadow=0;dashed=0;html=1;strokeColor=none;labelPosition=center;verticalLabelPosition=bottom;verticalAlign=top;align=center;fillColor=#00188D;shape=mxgraph.azure.user" vertex="1" parent="1">
          <mxGeometry x="363" y="50" width="47" height="50" as="geometry" />
        </mxCell>
        <mxCell id="riVmELEoJKBYG4qQqgdV-4" value="" style="shape=image;html=1;verticalAlign=top;verticalLabelPosition=bottom;labelBackgroundColor=#ffffff;imageAspect=0;aspect=fixed;image=https://cdn3.iconfinder.com/data/icons/forall/1062/conversation-128.png;imageBorder=none;imageBackground=none;" vertex="1" parent="1">
          <mxGeometry x="414" y="20" width="60" height="60" as="geometry" />
        </mxCell>
      </root>
    </mxGraphModel>
  </diagram>
</mxfile>
